<?xml version="1.0" standalone="no"?>
<!DOCTYPE svg PUBLIC "-//W3C//DTD SVG 20010904//EN"
 "http://www.w3.org/TR/2001/REC-SVG-20010904/DTD/svg10.dtd">
<svg version="1.0" xmlns="http://www.w3.org/2000/svg"
 width="612.000000pt" height="612.000000pt" viewBox="0 0 612.000000 612.000000"
 preserveAspectRatio="xMidYMid meet">
<metadata>
Created by potrace 1.14, written by Peter Selinger 2001-2017
</metadata>
<g transform="translate(0.000000,612.000000) scale(0.100000,-0.100000)"
fill="#000000" stroke="none">
<path d="M410 4488 l0 -78 2650 0 2651 0 -3 78 -3 77 -2647 0 -2648 0 0 -77z"/>
<path d="M489 4225 c-1 0 -2 -46 -3 -102 -1 -86 1 -103 14 -104 8 0 86 0 173
0 l158 0 -1 -27 c-1 -15 -2 -209 -1 -432 l1 -405 92 2 c51 0 98 1 103 2 7 1
10 146 10 430 l0 428 145 1 c80 1 164 1 187 1 l41 1 -1 102 -2 103 -457 0
c-252 0 -458 0 -459 0z"/>
<path d="M5047 4223 c-2 -1 -21 -5 -43 -8 -21 -3 -68 -20 -104 -38 -52 -26
-72 -43 -104 -89 -33 -49 -39 -66 -44 -126 -6 -85 7 -126 60 -193 31 -40 56
-59 112 -84 55 -25 209 -73 291 -89 35 -7 86 -38 101 -60 24 -37 14 -100 -22
-137 -53 -55 -187 -72 -268 -34 -47 23 -74 54 -99 117 l-23 55 -44 -4 c-25 -2
-56 -5 -70 -8 -14 -2 -38 -4 -53 -4 -26 -1 -28 -3 -23 -33 27 -161 118 -263
268 -302 115 -29 304 -14 396 33 51 26 109 87 135 143 25 52 29 184 8 238 -33
81 -112 150 -206 180 -22 7 -45 16 -51 21 -6 5 -13 6 -16 4 -3 -3 -25 1 -49 9
-24 7 -66 19 -92 25 -27 7 -69 21 -93 33 -133 62 -61 183 107 181 100 -2 146
-33 174 -117 6 -20 16 -31 28 -30 9 1 55 2 101 3 l84 1 -4 43 c-6 49 -43 131
-76 167 -58 64 -163 101 -294 104 -46 1 -86 1 -87 -1z"/>
<path d="M1470 3133 c0 -928 2 -1073 14 -1073 27 0 27 -20 1 -44 -15 -14 -33
-22 -42 -19 -12 5 -14 -1 -12 -28 2 -19 1 -39 -2 -44 -4 -6 -5 -28 -5 -50 1
-28 6 -40 16 -40 8 0 16 -7 16 -15 1 -8 2 -19 3 -24 0 -5 7 -3 14 3 19 15 28
3 20 -27 -5 -21 -3 -23 16 -17 21 6 26 -1 22 -33 -2 -10 2 -11 17 -3 17 9 19
8 15 -9 -6 -24 9 -26 27 -5 9 10 17 12 23 6 15 -15 37 -1 37 25 0 17 4 22 16
17 12 -4 15 0 12 18 -2 17 2 24 14 24 24 0 33 12 19 29 -9 11 -7 15 9 19 11 3
20 1 20 -5 0 -5 5 -6 10 -3 6 4 9 21 6 38 -3 18 -6 58 -7 90 -2 53 -4 58 -23
53 -12 -3 -28 1 -36 7 -17 13 -24 37 -12 37 5 0 8 349 8 775 l-1 775 57 0 c31
0 69 -5 85 -11 26 -10 103 -85 103 -100 0 -4 6 -14 14 -22 8 -8 54 -74 102
-148 48 -74 88 -135 89 -136 2 -4 91 -5 182 -4 l73 1 -29 43 c-16 23 -67 101
-113 172 -78 120 -171 225 -202 225 -6 0 19 11 55 23 83 28 112 48 149 99 99
136 54 345 -90 418 -57 28 -119 34 -412 35 l-278 1 0 -1073z m558 883 c38 -20
62 -62 62 -110 0 -70 -36 -111 -106 -122 -68 -11 -293 -10 -297 1 -2 9 -1 193
2 235 2 23 294 19 339 -4z"/>
<path d="M2780 4186 c-22 -59 -132 -342 -163 -421 -20 -49 -69 -178 -111 -285
-41 -107 -83 -214 -92 -238 -9 -23 -14 -45 -11 -49 9 -9 200 -5 209 5 4 4 24
54 45 112 l39 105 204 2 205 2 23 -62 c13 -34 33 -86 45 -116 l22 -53 102 -1
c57 0 106 2 109 5 3 3 -9 41 -26 85 -18 43 -35 87 -40 98 -4 11 -22 54 -39 95
-16 41 -49 122 -71 180 -22 58 -45 114 -49 125 -25 57 -44 104 -101 250 -35
88 -67 165 -72 170 -5 6 -56 10 -114 11 -98 0 -106 -1 -114 -20z m135 -263 c3
-16 13 -41 20 -58 22 -49 95 -252 95 -262 0 -12 -258 -15 -265 -3 -2 3 2 18
10 33 8 15 12 27 10 27 -2 0 14 44 34 98 21 53 46 121 55 150 19 55 29 59 41
15z"/>
<path d="M3324 4199 c-2 -4 2 -25 10 -46 8 -21 41 -110 72 -198 31 -88 74
-209 96 -270 22 -60 46 -128 54 -150 7 -22 26 -76 42 -120 16 -44 39 -109 52
-145 12 -36 26 -69 30 -73 7 -8 219 -13 224 -5 1 2 30 84 65 183 34 99 81 230
103 290 46 127 138 385 142 400 2 6 6 17 9 25 20 46 36 103 32 110 -6 10 -201
8 -211 -3 -4 -4 -9 -13 -10 -20 -2 -12 -190 -589 -201 -617 -4 -8 -7 -17 -8
-20 -1 -3 -6 -20 -10 -38 -4 -18 -10 -34 -14 -36 -4 -3 -28 59 -55 137 -26 78
-84 246 -128 372 l-79 231 -105 0 c-58 0 -107 -3 -110 -7z"/>
<path d="M4360 3698 l0 -508 30 -1 c17 -1 41 -1 55 -1 14 0 47 0 74 1 l50 1
-2 508 -2 507 -102 1 -103 1 0 -509z"/>
<path d="M5175 2966 c-126 -39 -178 -108 -192 -251 -5 -57 25 -163 55 -193 35
-35 87 -69 117 -77 17 -5 37 -10 45 -12 41 -11 152 -4 197 13 70 26 113 54
114 72 4 52 4 169 1 179 -3 9 -38 12 -123 12 l-119 -1 0 -32 0 -32 73 -1 c39
-1 78 -1 85 -2 8 -1 12 -18 12 -52 l0 -50 -47 -21 c-93 -41 -211 -33 -266 18
-61 57 -82 153 -52 247 29 93 96 135 206 132 69 -2 114 -27 140 -77 17 -32 22
-36 42 -29 12 5 25 9 30 10 9 1 9 11 -2 41 -12 34 -58 78 -101 97 -45 20 -164
25 -215 9z"/>
<path d="M1904 2704 l1 -269 130 0 c72 -1 148 3 170 9 94 22 161 103 171 208
3 27 5 53 6 57 0 3 -1 8 -2 11 -1 3 -3 19 -4 35 -10 93 -47 150 -126 191 -28
15 -65 19 -191 22 l-156 4 1 -268z m294 194 c26 -3 81 -67 92 -108 12 -46 11
-168 -2 -176 -4 -3 -8 -13 -8 -22 -1 -26 -42 -67 -80 -80 -18 -7 -75 -12 -126
-12 l-94 0 -1 38 c-2 133 1 354 6 361 4 7 148 7 213 -1z"/>
<path d="M2489 2953 c-4 -15 -3 -494 0 -514 1 -3 18 -5 39 -5 l37 1 0 118 -1
117 69 0 c100 0 105 -4 202 -141 67 -94 67 -94 111 -95 50 -1 52 3 24 39 -11
14 -20 30 -20 36 0 6 -3 11 -7 11 -5 0 -21 20 -36 45 -16 25 -47 60 -69 79
l-40 35 38 10 c53 14 80 35 100 76 20 43 14 103 -14 143 -36 50 -78 60 -264
61 -151 2 -166 0 -169 -16z m326 -57 c41 -17 59 -49 51 -88 -12 -60 -53 -75
-194 -75 -56 0 -103 3 -103 6 -4 20 -5 157 -2 164 8 13 212 8 248 -7z"/>
<path d="M3083 2703 l2 -268 33 -1 c27 0 33 4 38 25 3 14 7 32 10 39 2 6 0 12
-4 12 -7 0 -8 66 -2 95 1 6 1 13 0 18 -4 17 -3 75 3 90 3 9 3 18 -1 21 -7 4
-8 83 -2 111 1 6 1 15 0 20 -1 6 -2 31 -2 58 l0 47 -38 0 -39 0 2 -267z"/>
<path d="M3290 2702 l0 -268 173 1 c94 0 177 3 183 7 6 4 9 19 6 33 l-4 25
-142 0 -141 0 1 235 1 235 -39 0 -38 0 0 -268z"/>
<path d="M3739 2878 c0 -132 0 -367 0 -408 l1 -36 180 0 180 0 0 32 0 33 -134
-1 c-73 0 -138 2 -142 5 -5 3 -9 109 -8 236 l1 231 -38 0 -39 0 -1 -92z"/>
<path d="M4208 2958 c-2 -7 -4 -128 -3 -268 l1 -255 37 -1 c27 0 37 3 38 15 0
9 1 130 2 269 l2 252 -36 0 c-21 0 -39 -6 -41 -12z"/>
<path d="M4417 2963 c-3 -7 -2 -489 2 -520 0 -7 14 -10 34 -9 l32 3 3 207 2
208 64 -89 c36 -48 81 -110 101 -138 134 -185 138 -190 178 -191 34 -2 37 0
37 25 1 71 1 365 1 434 l-1 77 -34 0 c-19 0 -36 -6 -38 -12 -2 -7 -3 -100 -2
-207 l1 -193 -26 33 c-14 18 -65 87 -113 153 -176 244 -159 225 -200 226 -20
0 -38 -3 -41 -7z"/>
<path d="M3196 2251 c-1 -3 -2 -118 -2 -256 l1 -250 157 -2 c152 -1 156 0 162
20 3 12 1 26 -4 31 -5 5 -62 9 -127 10 l-118 1 0 222 0 221 -33 4 c-18 2 -34
2 -36 -1z"/>
<path d="M3510 2250 c-4 -3 -7 -16 -6 -30 1 -24 4 -25 61 -27 33 -1 70 -2 83
-2 l22 -1 0 -225 0 -224 35 1 c19 1 32 5 29 10 -3 4 -2 12 1 18 3 5 7 103 8
217 l2 206 80 1 c80 1 80 1 83 29 4 31 31 27 -236 30 -85 1 -157 0 -162 -3z"/>
<path d="M4008 2252 c-18 -2 -28 -10 -29 -20 -1 -20 -1 -474 0 -484 1 -11 263
-2 292 10 48 19 102 87 118 147 3 11 5 58 5 105 -1 121 -37 187 -123 225 -31
14 -197 24 -263 17z m256 -85 c41 -27 64 -91 62 -173 -2 -88 -20 -135 -63
-164 -29 -20 -49 -24 -124 -27 -49 -1 -90 1 -90 5 -1 4 -2 91 -3 194 l-2 187
41 3 c68 5 150 -7 179 -25z"/>
<path d="M4512 2039 c-14 -5 -16 -18 -14 -78 l4 -71 593 0 593 0 -2 69 c0 38
-4 73 -8 77 -9 9 -1142 12 -1166 3z"/>
<path d="M1888 2000 c-2 -19 -1 -54 1 -77 l3 -43 592 0 592 0 -2 70 c-1 39 -4
74 -8 78 -4 3 -270 7 -591 7 l-584 0 -3 -35z"/>
</g>
</svg>
